<?xml version="1.0" standalone="no"?><!DOCTYPE svg PUBLIC "-//W3C//DTD SVG 1.1//EN" "http://www.w3.org/Graphics/SVG/1.1/DTD/svg11.dtd"><svg t="1515406113873" class="icon" style="" viewBox="0 0 1024 1024" version="1.1" xmlns="http://www.w3.org/2000/svg" p-id="4022" xmlns:xlink="http://www.w3.org/1999/xlink" width="128" height="128"><defs><style type="text/css"></style></defs><path d="M617.296 918.657c-39.886 0-75.003 1.035-103.86 3.724-28.827-2.689-63.877-3.724-103.663-3.724-114.683 0-216.711 43.45-216.711 75.542 0 30.749 84.764 27.308 199.165 26.15 45.969-0.465 88.43-5.214 122.833-12.794 33.842 7.153 75.147 11.623 119.773 12.071 114.322 1.153 199.028 4.573 199.028-25.963 0.003-31.864-101.958-75.006-216.565-75.006z" fill="#FAAF08" p-id="4023"></path><path d="M902.524 603.075a2760.602 2760.602 0 0 0-70.278-171.292 481.27 481.27 0 0 0 1.787-41.481C834.033 174.747 723.708 0 514.013 0S193.987 174.747 193.987 390.302c0 13.13 0.558 26.097 1.597 38.894-16.483 36.633-43.64 99.507-71.23 174.306C80.215 723.175 78.264 831.38 93.606 839.42c10.92 5.722 50.802-36.121 88.802-103.843 25.111 159.577 131.194 278.92 331.603 278.92 199.867 0 305.913-118.702 331.393-277.632 37.791 66.404 77.127 107.294 87.976 101.642 15.398-8.025 13.438-116.005-30.855-235.432z" fill="" p-id="4024"></path><path d="M428.345 127.819c-31.118 0.602-55.644 37.27-54.778 81.902s26.794 80.32 57.909 79.717c31.117-0.603 55.644-37.274 54.778-81.902-0.863-44.63-26.791-80.32-57.909-79.717z m171.985 0.825c-31.469-0.6-57.692 34.91-58.567 79.31s23.927 80.884 55.402 81.487c31.469 0.6 57.692-34.91 58.567-79.31s-23.927-80.888-55.402-81.487zM718.57 486.593c-60.843 10.58-131.376 16.63-206.57 16.63-73.751 0-143-5.828-203.042-16.033-41.554 51.449-44.827 127.143-44.827 211.558 0 155.008 87.677 280.67 249.882 280.67 162.201 0 249.88-125.66 249.88-280.67 0-84.746-3.31-160.695-45.323-212.155z" fill="#FFFFFF" p-id="4025"></path><path d="M514.013 315.752c-108.954 0-197.275 21.928-197.275 39.468 0 17.542 115.443 65.782 197.275 65.782s197.275-49.413 197.275-65.782-88.324-39.468-197.275-39.468z" fill="#FAAF08" p-id="4026"></path><path d="M832.246 431.783c0.035-0.395 0.044-0.793 0.076-1.188-80.106 26.516-193.097 43.034-318.312 43.034-125.554 0-238.814-16.612-318.958-43.25a2767.067 2767.067 0 0 0-48.53 115.147c49.378 16.343 104.744 29.441 164.367 38.643v146.736s42.215 7.852 82.075 9.511c28.24 1.177 58.21-3.663 58.21-3.663V597.887c20.668 0.925 41.607 1.454 62.839 1.454 137.725 0 264.71-19.933 366.516-53.496a2763.875 2763.875 0 0 0-48.283-114.062z" fill="#E91F1F" p-id="4027"></path><path d="M446.765 184.23c-13.71 0-24.821 14.388-24.821 32.135s11.111 32.136 24.821 32.136 24.822-14.388 24.822-32.136-11.112-32.136-24.822-32.136z m182.688 20.424s-9.95-11.94-35.068-8.772c-24.74 3.12-34.406 17.461-36.235 18.994 0 0-5.936 8.154-1.761 13.166s11.691-2.923 11.691-2.923 11.445-14.131 26.302-14.62c14.857-0.485 23.38 5.849 23.38 5.849s7.305 5.36 11.688 0c4.388-5.36 0.003-11.694 0.003-11.694z" fill="" p-id="4028"></path></svg>